<svg width="40" height="30" viewBox="0 0 40 30" fill="none" xmlns="http://www.w3.org/2000/svg">
<path d="M2.45833 16.6921H31.6142L22.6904 25.7893C22.4838 26.0003 22.3282 26.2438 22.2324 26.5058C22.1367 26.7678 22.1026 27.0433 22.1323 27.3165C22.1923 27.8682 22.508 28.3772 23.01 28.7313C23.512 29.0855 24.1593 29.2559 24.8093 29.205C25.4594 29.1541 26.059 28.8862 26.4762 28.4601L38.7679 15.941C38.8506 15.8414 38.9246 15.7368 38.9892 15.628C38.9892 15.5237 39.1121 15.4611 39.1613 15.3568C39.2727 15.1175 39.331 14.8629 39.3333 14.6056C39.331 14.3484 39.2727 14.0937 39.1613 13.8545C39.1613 13.7501 39.0383 13.6875 38.9892 13.5832C38.9246 13.4744 38.8506 13.3698 38.7679 13.2702L26.4762 0.75115C26.2451 0.515618 25.9557 0.326204 25.6285 0.196379C25.3013 0.0665537 24.9445 -0.000493819 24.5833 3.98599e-06C24.0089 -0.000948535 23.4523 0.168842 23.01 0.479903C22.7611 0.655064 22.5553 0.870184 22.4045 1.11294C22.2537 1.3557 22.1607 1.62133 22.1311 1.89462C22.1014 2.1679 22.1355 2.44348 22.2315 2.70555C22.3275 2.96762 22.4834 3.21105 22.6904 3.42189L31.6142 12.5191H2.45833C1.80634 12.5191 1.18106 12.7389 0.72003 13.1302C0.259003 13.5215 0 14.0522 0 14.6056C0 15.159 0.259003 15.6897 0.72003 16.081C1.18106 16.4723 1.80634 16.6921 2.45833 16.6921Z" fill="white"/>
</svg>
