<svg width="50" height="50" viewBox="0 0 50 50" fill="none" xmlns="http://www.w3.org/2000/svg">
<mask id="mask0_85_544" style="mask-type:alpha" maskUnits="userSpaceOnUse" x="0" y="0" width="50" height="50">
<rect width="50" height="50" fill="#D9D9D9"/>
</mask>
<g mask="url(#mask0_85_544)">
<path d="M4.16675 14.5833V10.4167C4.16675 9.27083 4.57473 8.28993 5.39071 7.47396C6.20668 6.65799 7.18758 6.25 8.33342 6.25H41.6668C42.8126 6.25 43.7935 6.65799 44.6095 7.47396C45.4254 8.28993 45.8334 9.27083 45.8334 10.4167V14.5833H41.6668V10.4167H8.33342V14.5833H4.16675ZM16.6667 43.75V39.5833H8.33342C7.18758 39.5833 6.20668 39.1753 5.39071 38.3594C4.57473 37.5434 4.16675 36.5625 4.16675 35.4167V31.25H8.33342V35.4167H41.6668V31.25H45.8334V35.4167C45.8334 36.5625 45.4254 37.5434 44.6095 38.3594C43.7935 39.1753 42.8126 39.5833 41.6668 39.5833H33.3334V43.75H16.6667ZM10.0001 22.9167L15.4167 17.5L12.5001 14.5833L4.16675 22.9167L12.5001 31.25L15.4167 28.3333L10.0001 22.9167ZM40.0001 22.9167L34.5834 28.3333L37.5001 31.25L45.8334 22.9167L37.5001 14.5833L34.5834 17.5L40.0001 22.9167Z" fill="white"/>
</g>
</svg>
