<svg width="54" height="54" viewBox="0 0 54 54" fill="none" xmlns="http://www.w3.org/2000/svg">
<path d="M18.4293 13.2063C16.9956 12.0255 16.0984 10.3386 16.0984 8.4656C16.0984 4.89476 19.3596 2 23.3825 2C27.4054 2 30.6667 4.89476 30.6667 8.4656V45.4489M30.6667 45.5344C30.6667 49.1054 27.4054 52 23.3825 52C19.3596 52 16.0984 49.1054 16.0984 45.5344C16.0984 43.6614 17.3571 42.0602 18.4293 40.7937M18.4293 40.7937C17.3571 41.6767 15.7111 43.2623 14.085 43.6491C10.1991 44.5733 6.20499 42.5264 5.16377 39.0772C4.45789 36.7389 5.29038 34.3564 7.11058 32.7763M18.4293 40.7937L18.7222 40.5542M6.77477 20.4415C5.19053 18.8696 4.50287 16.6416 5.16377 14.4523C6.20499 11.0031 10.1991 8.95621 14.085 9.88042C14.816 10.0543 15.491 10.3209 16.0984 10.6622M9.6884 20.0137C6.31638 19.845 3.15868 21.7871 2.25001 24.7973C1.2088 28.2464 3.51483 31.7918 7.40066 32.716C8.16688 32.8983 8.93726 32.9649 9.6884 32.9282M18.1798 28.5048C17.9898 31.4979 20.1778 34.3008 23.569 35.1073C25.9294 35.6687 28.3298 35.1339 30.084 33.8544M40.7341 40.5542L35.9906 36.3676C35.0946 35.5768 33.8794 35.1325 32.6122 35.1325H30.6667M40.7341 14.0482L35.9906 18.2348C35.0946 19.0256 33.8794 19.4699 32.6122 19.4699H30.6667M30.6667 27.3012H45" stroke="white" stroke-width="4" stroke-linecap="round"/>
<path d="M41 42.5C41 44.433 42.567 46 44.5 46C46.433 46 48 44.433 48 42.5C48 40.567 46.433 39 44.5 39C42.567 39 41 40.567 41 42.5Z" stroke="white" stroke-width="4"/>
<path d="M45 26.5C45 28.433 46.567 30 48.5 30C50.433 30 52 28.433 52 26.5C52 24.567 50.433 23 48.5 23C46.567 23 45 24.567 45 26.5Z" stroke="white" stroke-width="4"/>
<path d="M40 10.5C40 8.567 41.567 7 43.5 7C45.433 7 47 8.567 47 10.5C47 12.433 45.433 14 43.5 14C41.567 14 40 12.433 40 10.5Z" stroke="white" stroke-width="4"/>
</svg>
