<svg width="192" height="56" viewBox="0 0 192 56" fill="none" xmlns="http://www.w3.org/2000/svg">
<path d="M70.2424 33.28C71.3624 35.168 72.4824 36.848 73.6024 38.32C74.7544 39.76 76.2584 41.536 78.1144 43.648C78.3384 43.872 78.4504 44.128 78.4504 44.416C78.4504 44.864 78.1944 45.248 77.6824 45.568C77.2024 45.888 76.6104 46.048 75.9064 46.048C74.9144 46.048 73.8424 45.632 72.6904 44.8C71.6664 44.064 70.7544 43.088 69.9544 41.872C69.1544 40.656 68.2264 39.072 67.1704 37.12C66.3384 35.616 65.8424 34.736 65.6824 34.48C64.4344 34.992 62.4824 35.312 59.8264 35.44C59.8264 36.528 59.9224 38 60.1144 39.856C60.3064 41.776 60.4024 43.168 60.4024 44.032C60.4024 44.608 60.1144 45.088 59.5384 45.472C58.9944 45.856 58.3704 46.048 57.6664 46.048C56.8344 46.048 56.1944 45.712 55.7464 45.04C55.2984 44.144 55.0104 43.072 54.8824 41.824C54.7544 40.576 54.6904 39.088 54.6904 37.36C54.6904 35.536 54.8024 33.472 55.0264 31.168C55.2184 28.608 55.3144 26.72 55.3144 25.504C55.3144 24.512 55.2184 23.184 55.0264 21.52C54.9944 21.232 54.9464 20.736 54.8824 20.032C54.8184 19.328 54.7864 18.688 54.7864 18.112C54.7864 17.664 54.9464 17.28 55.2664 16.96C55.6184 16.608 55.9864 16.368 56.3704 16.24C58.9624 15.824 61.4904 15.616 63.9544 15.616C68.1464 15.616 71.6184 16.4 74.3704 17.968C77.1224 19.536 78.4984 21.92 78.4984 25.12C78.4984 26.112 78.2744 27.072 77.8264 28C77.4104 28.896 76.8344 29.648 76.0984 30.256C74.1464 31.76 72.1944 32.768 70.2424 33.28ZM73.4584 24.976C73.4584 23.44 72.6424 22.192 71.0104 21.232C69.3784 20.24 67.0584 19.744 64.0504 19.744C62.7064 19.744 61.3784 19.904 60.0664 20.224L60.1144 22.672C60.1144 24.08 60.0664 25.456 59.9704 26.8C59.8744 28.144 59.8264 29.584 59.8264 31.12C60.3704 30.992 60.9464 30.912 61.5544 30.88C62.1624 30.816 62.5624 30.768 62.7544 30.736C64.1624 30.608 65.2504 30.448 66.0184 30.256C67.4584 29.808 68.6424 29.408 69.5704 29.056C70.5304 28.672 71.4104 28.144 72.2104 27.472C73.0424 26.768 73.4584 25.936 73.4584 24.976ZM85.1951 15.184C86.3151 15.28 87.2911 15.584 88.1231 16.096C88.9551 16.576 89.3711 17.312 89.3711 18.304C89.3711 19.04 89.0191 19.632 88.3151 20.08C87.6431 20.496 86.8271 20.704 85.8671 20.704C84.9391 20.704 84.2991 20.464 83.9471 19.984C83.5951 19.504 83.4191 19.008 83.4191 18.496C83.4191 17.536 83.5151 16.736 83.7071 16.096C83.9311 15.456 84.4271 15.152 85.1951 15.184ZM89.0351 36.448V37.84C89.0351 39.088 89.0671 40.272 89.1311 41.392C89.2271 42.48 89.3391 43.584 89.4671 44.704C89.4351 45.024 89.1951 45.36 88.7471 45.712C88.2991 46.032 87.8991 46.192 87.5471 46.192C86.9391 46.192 86.3151 46.08 85.6751 45.856C85.0671 45.6 84.6991 45.296 84.5711 44.944C84.3791 43.92 84.2831 43.008 84.2831 42.208C84.2831 39.584 84.2031 36.64 84.0431 33.376C83.9151 30.496 83.8511 28.48 83.8511 27.328C83.8511 26.752 84.1391 26.256 84.7151 25.84C85.2911 25.424 85.8991 25.216 86.5391 25.216C87.4671 25.216 88.1071 25.424 88.4591 25.84C88.8431 26.256 89.0351 26.912 89.0351 27.808V36.448ZM116.916 42.304C117.076 42.368 117.332 42.448 117.684 42.544C118.036 42.64 118.292 42.736 118.452 42.832C118.612 42.928 118.692 43.072 118.692 43.264C118.724 44.032 118.436 44.672 117.828 45.184C117.252 45.664 116.564 45.904 115.764 45.904C114.516 45.904 113.54 45.568 112.836 44.896C112.132 44.224 111.62 43.2 111.3 41.824C111.172 41.28 111.108 40.528 111.108 39.568C111.108 39.024 111.14 38.144 111.204 36.928C111.268 35.648 111.3 34.624 111.3 33.856C111.3 32.736 110.98 31.76 110.34 30.928C109.732 30.064 108.868 29.632 107.748 29.632C107.076 29.632 106.372 29.84 105.636 30.256C104.9 30.64 104.388 31.12 104.1 31.696C103.62 32.624 103.284 33.632 103.092 34.72C102.74 36.64 102.564 38.64 102.564 40.72C102.564 41.712 102.58 42.48 102.612 43.024C102.612 43.152 102.612 43.408 102.612 43.792C102.644 44.144 102.612 44.48 102.516 44.8C102.452 45.088 102.324 45.36 102.132 45.616C101.972 45.776 101.716 45.904 101.364 46C101.044 46.128 100.74 46.192 100.452 46.192C100.004 46.192 99.4444 46 98.7724 45.616C98.1004 45.232 97.7164 44.8 97.6204 44.32L97.5724 43.504C97.5724 43.216 97.6044 42.88 97.6684 42.496C98.0524 40.256 98.2444 38.304 98.2444 36.64C98.2444 35.904 98.2284 35.328 98.1964 34.912L98.1484 32.656C98.1484 31.888 97.9564 31.152 97.5724 30.448C97.1884 29.712 96.7404 29.344 96.2284 29.344C96.0684 29.344 95.8444 29.408 95.5564 29.536C95.2684 29.632 95.0284 29.68 94.8364 29.68C94.5164 29.68 94.1644 29.52 93.7804 29.2C93.4284 28.88 93.2524 28.544 93.2524 28.192C93.2524 27.52 93.4764 26.976 93.9244 26.56C94.4044 26.176 94.8684 25.872 95.3164 25.648C95.7964 25.424 96.3404 25.312 96.9484 25.312C97.4604 25.312 97.8764 25.36 98.1964 25.456C98.5164 25.552 98.9484 25.76 99.4924 26.08C99.7804 26.24 100.116 26.592 100.5 27.136C100.884 27.68 101.204 28.448 101.46 29.44C102.292 27.904 103.316 26.832 104.532 26.224C105.78 25.584 107.364 25.264 109.284 25.264C110.02 25.264 110.804 25.504 111.636 25.984C112.5 26.464 113.236 27.024 113.844 27.664C114.42 28.368 114.9 29.248 115.284 30.304C115.668 31.328 115.86 32.256 115.86 33.088C115.86 33.568 115.828 34.352 115.764 35.44C115.668 36.304 115.62 37.216 115.62 38.176C115.62 40.416 116.052 41.792 116.916 42.304ZM124.617 15.184C125.737 15.28 126.713 15.584 127.545 16.096C128.377 16.576 128.793 17.312 128.793 18.304C128.793 19.04 128.441 19.632 127.737 20.08C127.065 20.496 126.249 20.704 125.289 20.704C124.361 20.704 123.721 20.464 123.369 19.984C123.017 19.504 122.841 19.008 122.841 18.496C122.841 17.536 122.937 16.736 123.129 16.096C123.353 15.456 123.849 15.152 124.617 15.184ZM128.457 36.448V37.84C128.457 39.088 128.489 40.272 128.553 41.392C128.649 42.48 128.761 43.584 128.889 44.704C128.889 45.088 128.665 45.44 128.217 45.76C127.769 46.048 127.353 46.192 126.969 46.192C126.361 46.192 125.737 46.08 125.097 45.856C124.489 45.6 124.121 45.296 123.993 44.944C123.801 43.92 123.705 43.008 123.705 42.208C123.705 39.584 123.625 36.64 123.465 33.376C123.337 30.496 123.273 28.48 123.273 27.328C123.273 26.752 123.561 26.256 124.137 25.84C124.713 25.424 125.321 25.216 125.961 25.216C126.889 25.216 127.529 25.424 127.881 25.84C128.265 26.256 128.457 26.912 128.457 27.808V36.448ZM134.45 29.296C134.002 29.232 133.634 29.056 133.346 28.768C133.09 28.448 132.962 28.064 132.962 27.616C132.962 27.04 133.186 26.56 133.634 26.176C133.73 26.08 133.89 26 134.114 25.936C134.338 25.84 134.514 25.76 134.642 25.696C135.346 25.472 135.794 25.296 135.986 25.168C136.722 24.72 137.218 23.984 137.474 22.96C137.73 21.744 137.89 20.912 137.954 20.464C138.018 19.76 138.242 19.232 138.626 18.88C139.042 18.496 139.554 18.304 140.162 18.304C140.962 18.304 141.522 18.512 141.842 18.928C142.162 19.344 142.322 20.112 142.322 21.232C142.322 22.704 141.97 24.096 141.266 25.408C141.714 25.408 142.45 25.376 143.474 25.312C145.01 25.248 146.082 25.216 146.69 25.216C147.234 25.216 147.698 25.36 148.082 25.648C148.498 25.904 148.706 26.288 148.706 26.8C148.706 28.016 148.146 28.736 147.026 28.96C146.002 29.248 144.146 29.424 141.458 29.488C141.234 32.624 141.122 35.104 141.122 36.928C141.122 38.048 141.17 38.848 141.266 39.328C141.458 40.32 141.778 41.056 142.226 41.536C142.706 41.984 143.41 42.208 144.338 42.208C144.786 42.208 145.458 42.096 146.354 41.872C146.898 41.712 147.33 41.632 147.65 41.632C148.066 41.632 148.386 41.776 148.61 42.064C148.834 42.352 148.946 42.736 148.946 43.216C148.946 44.08 148.386 44.8 147.266 45.376C146.146 45.92 144.818 46.192 143.282 46.192C142.322 46.192 141.378 45.968 140.45 45.52C139.522 45.04 138.738 44.464 138.098 43.792C137.97 43.728 137.778 43.376 137.522 42.736C137.298 42.096 137.074 41.392 136.85 40.624C136.754 40.24 136.706 39.312 136.706 37.84C136.706 36.432 136.802 34 136.994 30.544L137.042 29.488C136.818 29.488 136.402 29.472 135.794 29.44C135.186 29.376 134.738 29.328 134.45 29.296ZM157.827 55.792C156.643 55.792 155.635 55.584 154.803 55.168C153.971 54.784 153.347 54.304 152.931 53.728C152.547 53.184 152.355 52.704 152.355 52.288C152.355 51.712 152.563 51.2 152.979 50.752C153.395 50.336 153.859 50.128 154.371 50.128C154.659 50.128 154.931 50.224 155.187 50.416C155.475 50.608 155.651 50.72 155.715 50.752C155.875 50.88 156.083 51.072 156.339 51.328C156.595 51.616 156.851 51.76 157.107 51.76C157.843 51.76 158.435 51.296 158.883 50.368C159.331 49.44 159.763 47.936 160.179 45.856C158.067 42.368 156.067 38.816 154.179 35.2C152.291 31.584 151.347 29.136 151.347 27.856C151.347 27.056 151.635 26.464 152.211 26.08C152.787 25.696 153.443 25.504 154.179 25.504C154.723 25.504 155.155 25.616 155.475 25.84C155.795 26.032 156.051 26.4 156.243 26.944C157.139 29.664 158.051 32.096 158.979 34.24C159.907 36.352 160.979 38.48 162.195 40.624C162.771 39.344 163.459 37.248 164.259 34.336C164.739 32.64 165.155 31.264 165.507 30.208C165.859 29.12 166.259 28.128 166.707 27.232C166.995 26.656 167.347 26.192 167.763 25.84C168.211 25.488 168.691 25.312 169.203 25.312C169.779 25.312 170.371 25.52 170.979 25.936C171.619 26.32 171.939 26.784 171.939 27.328C171.939 27.488 171.827 27.872 171.603 28.48C170.355 31.264 169.251 33.952 168.291 36.544C167.331 39.104 166.435 41.92 165.603 44.992C165.091 46.624 164.547 48.208 163.971 49.744C163.395 51.312 162.995 52.288 162.771 52.672C162.099 53.568 161.379 54.304 160.611 54.88C159.843 55.488 158.915 55.792 157.827 55.792Z" fill="white"/>
<path d="M37.7945 7L25.7327 30.7941L13.4022 7H0L25.643 54L51.2864 7H37.7945Z" fill="url(#paint0_linear_122_144)"/>
<defs>
<linearGradient id="paint0_linear_122_144" x1="0.52333" y1="-7.27818" x2="51.9879" y2="77.3209" gradientUnits="userSpaceOnUse">
<stop stop-color="#79F1A4"/>
<stop offset="0.79449" stop-color="#0E5CAD"/>
</linearGradient>
</defs>
</svg>
