<svg width="50" height="50" viewBox="0 0 50 50" fill="none" xmlns="http://www.w3.org/2000/svg">
<mask id="mask0_85_536" style="mask-type:alpha" maskUnits="userSpaceOnUse" x="0" y="0" width="50" height="50">
<rect width="50" height="50" fill="#D9D9D9"/>
</mask>
<g mask="url(#mask0_85_536)">
<path d="M6 44.5833V15.4167H18.5V11.25L24.75 5L31 11.25V23.75H43.5V44.5833H6ZM10.1667 40.4167H14.3333V36.25H10.1667V40.4167ZM10.1667 32.0833H14.3333V27.9167H10.1667V32.0833ZM10.1667 23.75H14.3333V19.5833H10.1667V23.75ZM22.6667 40.4167H26.8333V36.25H22.6667V40.4167ZM22.6667 32.0833H26.8333V27.9167H22.6667V32.0833ZM22.6667 23.75H26.8333V19.5833H22.6667V23.75ZM22.6667 15.4167H26.8333V11.25H22.6667V15.4167ZM35.1667 40.4167H39.3333V36.25H35.1667V40.4167ZM35.1667 32.0833H39.3333V27.9167H35.1667V32.0833Z" fill="white"/>
</g>
</svg>
