<svg width="50" height="50" viewBox="0 0 50 50" fill="none" xmlns="http://www.w3.org/2000/svg">
<mask id="mask0_85_508" style="mask-type:alpha" maskUnits="userSpaceOnUse" x="0" y="0" width="50" height="50">
<rect width="50" height="50" fill="#D9D9D9"/>
</mask>
<g mask="url(#mask0_85_508)">
<path d="M9.84387 41.6666C7.76054 41.6666 5.98102 40.9201 4.50533 39.427C3.02964 37.9339 2.25707 36.1284 2.18762 34.0103C2.18762 33.6978 2.20498 33.3853 2.23971 33.0728C2.27443 32.7603 2.32651 32.4478 2.39596 32.1353L6.77096 14.6353C7.25707 12.7603 8.24665 11.2412 9.73971 10.078C11.2328 8.91485 12.9342 8.33325 14.8439 8.33325H35.1564C37.0661 8.33325 38.7675 8.91485 40.2605 10.078C41.7536 11.2412 42.7432 12.7603 43.2293 14.6353L47.6043 32.1353C47.6737 32.4478 47.7345 32.769 47.7866 33.0989C47.8387 33.4287 47.8647 33.7499 47.8647 34.0624C47.8647 36.1805 47.1095 37.9773 45.5991 39.453C44.0887 40.9287 42.2744 41.6666 40.1564 41.6666C38.698 41.6666 37.3439 41.2846 36.0939 40.5208C34.8439 39.7569 33.9064 38.7152 33.2814 37.3958L31.823 34.3749C31.6494 34.0277 31.389 33.7673 31.0418 33.5937C30.6946 33.4201 30.33 33.3333 29.948 33.3333H20.0522C19.6703 33.3333 19.3057 33.4201 18.9585 33.5937C18.6112 33.7673 18.3508 34.0277 18.1772 34.3749L16.7189 37.3958C16.0939 38.7152 15.1564 39.7569 13.9064 40.5208C12.6564 41.2846 11.3022 41.6666 9.84387 41.6666ZM10.0001 37.4999C10.6598 37.4999 11.2588 37.3263 11.797 36.9791C12.3352 36.6319 12.7432 36.1631 13.021 35.5728L14.4793 32.6041C15.0001 31.5277 15.764 30.6857 16.771 30.078C17.7779 29.4704 18.8717 29.1666 20.0522 29.1666H29.948C31.1286 29.1666 32.2223 29.4791 33.2293 30.1041C34.2362 30.7291 35.0175 31.5624 35.573 32.6041L37.0314 35.5728C37.3092 36.1631 37.7171 36.6319 38.2553 36.9791C38.7935 37.3263 39.3925 37.4999 40.0522 37.4999C41.0244 37.4999 41.8578 37.1787 42.5522 36.5364C43.2467 35.894 43.6112 35.0867 43.646 34.1145C43.646 34.1492 43.6112 33.8194 43.5418 33.1249L39.1668 15.677C38.9237 14.7395 38.4376 13.9756 37.7085 13.3853C36.9793 12.7951 36.1286 12.4999 35.1564 12.4999H14.8439C13.8717 12.4999 13.0123 12.7951 12.2657 13.3853C11.5192 13.9756 11.0418 14.7395 10.8335 15.677L6.45846 33.1249C6.38901 33.3333 6.35429 33.6458 6.35429 34.0624C6.35429 35.0346 6.71019 35.8506 7.422 36.5103C8.1338 37.1701 8.99318 37.4999 10.0001 37.4999ZM28.1251 22.9166C28.7154 22.9166 29.2102 22.7169 29.6095 22.3176C30.0088 21.9183 30.2085 21.4235 30.2085 20.8333C30.2085 20.243 30.0088 19.7482 29.6095 19.3489C29.2102 18.9496 28.7154 18.7499 28.1251 18.7499C27.5348 18.7499 27.0401 18.9496 26.6407 19.3489C26.2414 19.7482 26.0418 20.243 26.0418 20.8333C26.0418 21.4235 26.2414 21.9183 26.6407 22.3176C27.0401 22.7169 27.5348 22.9166 28.1251 22.9166ZM32.2918 18.7499C32.8821 18.7499 33.3769 18.5503 33.7762 18.151C34.1755 17.7517 34.3751 17.2569 34.3751 16.6666C34.3751 16.0763 34.1755 15.5815 33.7762 15.1822C33.3769 14.7829 32.8821 14.5833 32.2918 14.5833C31.7015 14.5833 31.2067 14.7829 30.8074 15.1822C30.4081 15.5815 30.2085 16.0763 30.2085 16.6666C30.2085 17.2569 30.4081 17.7517 30.8074 18.151C31.2067 18.5503 31.7015 18.7499 32.2918 18.7499ZM32.2918 27.0833C32.8821 27.0833 33.3769 26.8836 33.7762 26.4843C34.1755 26.085 34.3751 25.5902 34.3751 24.9999C34.3751 24.4096 34.1755 23.9148 33.7762 23.5155C33.3769 23.1162 32.8821 22.9166 32.2918 22.9166C31.7015 22.9166 31.2067 23.1162 30.8074 23.5155C30.4081 23.9148 30.2085 24.4096 30.2085 24.9999C30.2085 25.5902 30.4081 26.085 30.8074 26.4843C31.2067 26.8836 31.7015 27.0833 32.2918 27.0833ZM36.4585 22.9166C37.0487 22.9166 37.5435 22.7169 37.9428 22.3176C38.3421 21.9183 38.5418 21.4235 38.5418 20.8333C38.5418 20.243 38.3421 19.7482 37.9428 19.3489C37.5435 18.9496 37.0487 18.7499 36.4585 18.7499C35.8682 18.7499 35.3734 18.9496 34.9741 19.3489C34.5748 19.7482 34.3751 20.243 34.3751 20.8333C34.3751 21.4235 34.5748 21.9183 34.9741 22.3176C35.3734 22.7169 35.8682 22.9166 36.4585 22.9166ZM17.7085 26.0416C18.1598 26.0416 18.5331 25.894 18.8282 25.5989C19.1234 25.3037 19.271 24.9305 19.271 24.4791V22.3958H21.3543C21.8057 22.3958 22.1789 22.2482 22.4741 21.953C22.7692 21.6579 22.9168 21.2846 22.9168 20.8333C22.9168 20.3819 22.7692 20.0086 22.4741 19.7135C22.1789 19.4183 21.8057 19.2708 21.3543 19.2708H19.271V17.1874C19.271 16.736 19.1234 16.3628 18.8282 16.0676C18.5331 15.7725 18.1598 15.6249 17.7085 15.6249C17.2571 15.6249 16.8838 15.7725 16.5887 16.0676C16.2935 16.3628 16.146 16.736 16.146 17.1874V19.2708H14.0626C13.6112 19.2708 13.238 19.4183 12.9428 19.7135C12.6477 20.0086 12.5001 20.3819 12.5001 20.8333C12.5001 21.2846 12.6477 21.6579 12.9428 21.953C13.238 22.2482 13.6112 22.3958 14.0626 22.3958H16.146V24.4791C16.146 24.9305 16.2935 25.3037 16.5887 25.5989C16.8838 25.894 17.2571 26.0416 17.7085 26.0416Z" fill="white"/>
</g>
</svg>
