<svg width="50" height="50" viewBox="0 0 50 50" fill="none" xmlns="http://www.w3.org/2000/svg">
<mask id="mask0_85_490" style="mask-type:alpha" maskUnits="userSpaceOnUse" x="0" y="0" width="50" height="50">
<rect width="50" height="50" fill="#D9D9D9"/>
</mask>
<g mask="url(#mask0_85_490)">
<path d="M15.4166 45.8333L12.5 42.9167L26.875 28.4896L34.1666 35.7812L44.9479 25L47.9166 27.9688L34.1666 41.6667L26.875 34.375L15.4166 45.8333ZM8.33329 43.75C7.18746 43.75 6.20656 43.342 5.39058 42.526C4.57461 41.7101 4.16663 40.7292 4.16663 39.5833V10.4167C4.16663 9.27083 4.57461 8.28993 5.39058 7.47396C6.20656 6.65799 7.18746 6.25 8.33329 6.25H37.5C38.6458 6.25 39.6267 6.65799 40.4427 7.47396C41.2586 8.28993 41.6666 9.27083 41.6666 10.4167V19.1667H8.33329V43.75ZM8.33329 15H37.5V10.4167H8.33329V15Z" fill="white"/>
</g>
</svg>
