<svg width="15" height="12" viewBox="0 0 15 12" fill="none" xmlns="http://www.w3.org/2000/svg">
<path d="M14.9965 3.95891C15.0302 2.91949 14.817 1.88785 14.3765 0.959782C14.0776 0.578971 13.6629 0.321984 13.2045 0.2336C11.3085 0.0502579 9.40476 -0.0248881 7.50128 0.00848419C5.60473 -0.0264028 3.70779 0.0463184 1.8185 0.226339C1.44498 0.298751 1.09931 0.485471 0.823673 0.763713C0.210424 1.36644 0.142285 2.39762 0.0741459 3.26904C-0.0247153 4.83582 -0.0247153 6.40791 0.0741459 7.97469C0.0938585 8.46516 0.162381 8.95201 0.278562 9.42706C0.360721 9.79383 0.526944 10.1332 0.762348 10.4147C1.03986 10.7076 1.39358 10.905 1.77762 10.9811C3.24663 11.1743 4.72681 11.2544 6.20664 11.2207C8.5915 11.257 10.6834 11.2207 13.1568 11.0174C13.5503 10.946 13.9139 10.7484 14.1993 10.451C14.3901 10.2476 14.5326 9.99863 14.615 9.72479C14.8587 8.92789 14.9783 8.09387 14.9693 7.25578C14.9965 6.84911 14.9965 4.39462 14.9965 3.95891ZM5.96134 7.69148V3.19642L9.99516 5.45485C8.86405 6.12293 7.37181 6.87816 5.96134 7.69148Z" fill="white" fill-opacity="0.6"/>
</svg>
