<svg width="16" height="14" viewBox="0 0 16 14" fill="none" xmlns="http://www.w3.org/2000/svg">
<path d="M16 1.57148C15.3981 1.83955 14.7616 2.0177 14.11 2.10046C14.7967 1.68446 15.3101 1.02572 15.553 0.249036C14.91 0.638455 14.2065 0.912686 13.473 1.05986C13.0232 0.569466 12.4395 0.228529 11.7975 0.0813501C11.1555 -0.065829 10.485 -0.0124474 9.87318 0.23456C9.2613 0.481567 8.73632 0.910781 8.36642 1.46644C7.99653 2.0221 7.79883 2.67851 7.799 3.3504C7.799 3.61591 7.821 3.87121 7.875 4.11426C6.57008 4.04892 5.29336 3.70307 4.1283 3.09931C2.96325 2.49555 1.93609 1.64748 1.114 0.610539C0.692819 1.3477 0.562609 2.22107 0.749883 3.05283C0.937158 3.88459 1.42783 4.61218 2.122 5.08746C1.60276 5.07324 1.09447 4.93174 0.64 4.67489V4.71166C0.64087 5.48514 0.902665 6.2347 1.38132 6.83417C1.85997 7.43363 2.52625 7.84639 3.268 8.00297C2.98739 8.07849 2.69819 8.11558 2.408 8.11326C2.19959 8.11704 1.99139 8.09787 1.787 8.05607C1.99894 8.72089 2.40749 9.30227 2.95639 9.72016C3.5053 10.1381 4.16756 10.3719 4.852 10.3895C3.69094 11.3168 2.25897 11.8198 0.785 11.8181C0.516 11.8181 0.258 11.8059 0 11.7722C1.49988 12.7592 3.24768 13.2813 5.032 13.2754C11.068 13.2754 14.368 8.16942 14.368 3.74356C14.368 3.59549 14.363 3.45252 14.356 3.31058C15.003 2.83775 15.5601 2.24841 16 1.57148Z" fill="white" fill-opacity="0.6"/>
</svg>
