<svg width="13" height="14" viewBox="0 0 13 14" fill="none" xmlns="http://www.w3.org/2000/svg">
<path d="M9.971 2.29667C9.81673 2.29667 9.66593 2.34338 9.53765 2.43091C9.40938 2.51843 9.30941 2.64283 9.25037 2.78838C9.19134 2.93393 9.17589 3.09408 9.20599 3.24859C9.23608 3.40311 9.31037 3.54503 9.41946 3.65643C9.52854 3.76783 9.66752 3.84369 9.81883 3.87443C9.97013 3.90516 10.127 3.88939 10.2695 3.8291C10.412 3.76881 10.5338 3.66672 10.6195 3.53573C10.7053 3.40474 10.751 3.25074 10.751 3.0932C10.751 2.88195 10.6688 2.67934 10.5225 2.52997C10.3763 2.38059 10.1779 2.29667 9.971 2.29667ZM12.961 3.90301C12.9484 3.35227 12.8474 2.80738 12.662 2.29003C12.4967 1.84738 12.2395 1.44655 11.908 1.11514C11.5861 0.77491 11.1927 0.51388 10.7575 0.351802C10.2522 0.156758 9.71805 0.0512502 9.178 0.0398266C8.489 -3.70914e-08 8.268 0 6.5 0C4.732 0 4.511 -3.70914e-08 3.822 0.0398266C3.28195 0.0512502 2.74777 0.156758 2.2425 0.351802C1.80809 0.515521 1.41501 0.776327 1.092 1.11514C0.758827 1.44383 0.503215 1.84559 0.3445 2.29003C0.153505 2.80601 0.0501865 3.35151 0.039 3.90301C-3.63216e-08 4.60661 0 4.83229 0 6.63776C0 8.44324 -3.63216e-08 8.66892 0.039 9.37253C0.0501865 9.92402 0.153505 10.4695 0.3445 10.9855C0.503215 11.4299 0.758827 11.8317 1.092 12.1604C1.41501 12.4992 1.80809 12.76 2.2425 12.9237C2.74777 13.1188 3.28195 13.2243 3.822 13.2357C4.511 13.2755 4.732 13.2755 6.5 13.2755C8.268 13.2755 8.489 13.2755 9.178 13.2357C9.71805 13.2243 10.2522 13.1188 10.7575 12.9237C11.1927 12.7617 11.5861 12.5006 11.908 12.1604C12.241 11.8302 12.4984 11.429 12.662 10.9855C12.8474 10.4682 12.9484 9.92326 12.961 9.37253C12.961 8.66892 13 8.44324 13 6.63776C13 4.83229 13 4.60661 12.961 3.90301ZM11.791 9.29287C11.7863 9.71422 11.7115 10.1317 11.57 10.5275C11.4662 10.8164 11.2995 11.0774 11.0825 11.2908C10.8717 11.5102 10.6166 11.6801 10.335 11.7887C9.94741 11.9332 9.5386 12.0095 9.126 12.0144C8.476 12.0475 8.2355 12.0542 6.526 12.0542C4.8165 12.0542 4.576 12.0542 3.926 12.0144C3.49758 12.0225 3.07099 11.9552 2.665 11.8152C2.39576 11.7011 2.15238 11.5316 1.95 11.3174C1.73426 11.1041 1.56965 10.8429 1.469 10.554C1.31031 10.1526 1.22229 9.72562 1.209 9.29287C1.209 8.6291 1.17 8.3835 1.17 6.63776C1.17 4.89203 1.17 4.64644 1.209 3.98266C1.21191 3.5519 1.28892 3.12502 1.4365 2.72148C1.55093 2.44131 1.72657 2.19156 1.95 1.99133C2.14748 1.7631 2.39154 1.58184 2.665 1.46031C3.06121 1.31431 3.4788 1.238 3.9 1.23462C4.55 1.23462 4.7905 1.1948 6.5 1.1948C8.2095 1.1948 8.45 1.1948 9.1 1.23462C9.5126 1.23946 9.92141 1.31577 10.309 1.46031C10.6044 1.57226 10.8695 1.75426 11.0825 1.99133C11.2955 2.19523 11.4619 2.44451 11.57 2.72148C11.7145 3.12568 11.7892 3.55239 11.791 3.98266C11.8235 4.64644 11.83 4.89203 11.83 6.63776C11.83 8.3835 11.8235 8.6291 11.791 9.29287ZM6.5 3.23259C5.84078 3.2339 5.19673 3.43473 4.64923 3.80969C4.10173 4.18465 3.67535 4.71693 3.42396 5.33925C3.17258 5.96158 3.10747 6.64604 3.23687 7.30614C3.36626 7.96624 3.68435 8.57236 4.15095 9.04792C4.61755 9.52348 5.21171 9.84713 5.85836 9.97799C6.50501 10.1088 7.17513 10.041 7.78405 9.78309C8.39298 9.52517 8.91337 9.08872 9.27948 8.52889C9.6456 7.96905 9.841 7.31096 9.841 6.63776C9.84186 6.18979 9.75598 5.74605 9.58831 5.33209C9.42063 4.91812 9.17446 4.5421 8.86397 4.22564C8.55347 3.90917 8.18477 3.65852 7.77907 3.4881C7.37337 3.31767 6.93868 3.23084 6.5 3.23259ZM6.5 8.84814C6.0719 8.84814 5.65342 8.7185 5.29747 8.47563C4.94152 8.23275 4.66409 7.88753 4.50026 7.48364C4.33644 7.07975 4.29357 6.63531 4.37709 6.20654C4.46061 5.77777 4.66676 5.38392 4.96947 5.07479C5.27218 4.76567 5.65786 4.55515 6.07773 4.46986C6.4976 4.38457 6.93281 4.42835 7.32832 4.59564C7.72383 4.76294 8.06188 5.04625 8.29972 5.40975C8.53755 5.77324 8.6645 6.20059 8.6645 6.63776C8.6645 6.92804 8.60851 7.21546 8.49974 7.48364C8.39096 7.75181 8.23152 7.99548 8.03053 8.20074C7.82954 8.40599 7.59093 8.5688 7.32832 8.67989C7.06571 8.79097 6.78425 8.84814 6.5 8.84814Z" fill="white" fill-opacity="0.6"/>
</svg>
