<svg width="50" height="37" viewBox="0 0 50 37" fill="none" xmlns="http://www.w3.org/2000/svg">
<path d="M15.1163 16.7656C15.1163 13.2622 12.2442 10.4062 8.72093 10.4062C5.19767 10.4062 2.32558 13.2622 2.32558 16.7656C2.32558 20.2691 5.19767 23.125 8.72093 23.125C12.2442 23.125 15.1163 20.2691 15.1163 16.7656ZM5.81395 16.7656C5.81395 15.999 6.12022 15.2637 6.66539 14.7216C7.21055 14.1795 7.94995 13.875 8.72093 13.875C9.49191 13.875 10.2313 14.1795 10.7765 14.7216C11.3216 15.2637 11.6279 15.999 11.6279 16.7656C11.6279 17.5323 11.3216 18.2675 10.7765 18.8096C10.2313 19.3517 9.49191 19.6562 8.72093 19.6562C7.94995 19.6562 7.21055 19.3517 6.66539 18.8096C6.12022 18.2675 5.81395 17.5323 5.81395 16.7656ZM0 30.6406V35.2656C0 36.2253 0.77907 37 1.74419 37H15.6977C16.6628 37 17.4419 36.2253 17.4419 35.2656V30.6406C17.4419 27.1372 14.5698 24.2812 11.0465 24.2812H6.39535C4.70014 24.2843 3.07524 24.9553 1.87655 26.1472C0.677854 27.3392 0.00307382 28.955 0 30.6406ZM3.48837 30.6406C3.48837 29.874 3.79464 29.1387 4.33981 28.5966C4.88497 28.0545 5.62437 27.75 6.39535 27.75H11.0465C11.8175 27.75 12.5569 28.0545 13.1021 28.5966C13.6472 29.1387 13.9535 29.874 13.9535 30.6406V33.5312H3.48837V30.6406ZM41.2791 10.4062C37.7558 10.4062 34.8837 13.2622 34.8837 16.7656C34.8837 20.2691 37.7558 23.125 41.2791 23.125C44.8023 23.125 47.6744 20.2691 47.6744 16.7656C47.6744 13.2622 44.8023 10.4062 41.2791 10.4062ZM41.2791 19.6562C40.5081 19.6562 39.7687 19.3517 39.2235 18.8096C38.6784 18.2675 38.3721 17.5323 38.3721 16.7656C38.3721 15.999 38.6784 15.2637 39.2235 14.7216C39.7687 14.1795 40.5081 13.875 41.2791 13.875C42.05 13.875 42.7894 14.1795 43.3346 14.7216C43.8798 15.2637 44.186 15.999 44.186 16.7656C44.186 17.5323 43.8798 18.2675 43.3346 18.8096C42.7894 19.3517 42.05 19.6562 41.2791 19.6562ZM43.6046 24.2812H38.9535C37.2583 24.2843 35.6334 24.9553 34.4347 26.1472C33.236 27.3392 32.5612 28.955 32.5581 30.6406V35.2656C32.5581 36.2253 33.3372 37 34.3023 37H48.2558C49.2209 37 50 36.2253 50 35.2656V30.6406C50 27.1372 47.1279 24.2812 43.6046 24.2812ZM46.5116 33.5312H36.0465V30.6406C36.0465 29.874 36.3528 29.1387 36.8979 28.5966C37.4431 28.0545 38.1825 27.75 38.9535 27.75H43.6046C44.3756 27.75 45.115 28.0545 45.6602 28.5966C46.2054 29.1387 46.5116 29.874 46.5116 30.6406V33.5312ZM31.3953 6.35938C31.3953 2.85594 28.5233 0 25 0C21.4767 0 18.6047 2.85594 18.6047 6.35938C18.6047 9.86281 21.4767 12.7188 25 12.7188C28.5233 12.7188 31.3953 9.86281 31.3953 6.35938ZM22.093 6.35938C22.093 5.59273 22.3993 4.85749 22.9445 4.31539C23.4896 3.7733 24.229 3.46875 25 3.46875C25.771 3.46875 26.5104 3.7733 27.0555 4.31539C27.6007 4.85749 27.907 5.59273 27.907 6.35938C27.907 7.12602 27.6007 7.86126 27.0555 8.40336C26.5104 8.94545 25.771 9.25 25 9.25C24.229 9.25 23.4896 8.94545 22.9445 8.40336C22.3993 7.86126 22.093 7.12602 22.093 6.35938ZM31.9767 26.5938C32.9419 26.5938 33.7209 25.8191 33.7209 24.8594V20.2344C33.7209 16.7309 30.8488 13.875 27.3256 13.875H22.6744C20.9792 13.8781 19.3543 14.549 18.1556 15.741C16.9569 16.9329 16.2821 18.5487 16.2791 20.2344V24.8594C16.2791 25.8191 17.0581 26.5938 18.0233 26.5938H31.9767ZM19.7674 20.2344C19.7674 19.4677 20.0737 18.7325 20.6189 18.1904C21.164 17.6483 21.9034 17.3438 22.6744 17.3438H27.3256C28.0966 17.3438 28.836 17.6483 29.3811 18.1904C29.9263 18.7325 30.2326 19.4677 30.2326 20.2344V23.125H19.7674V20.2344Z" fill="white"/>
</svg>
